<svg xmlns="http://www.w3.org/2000/svg" viewBox="0 0 620 150" role="img" aria-labelledby="title desc">
  <title id="title">Wampus Labs — Putting technology to work.</title><desc id="desc">Wampus Labs logo for dark backgrounds.</desc>
  <g transform="translate(0 -5) scale(.94)"><path fill="#33D6AE" d="M14 42h28l20 57 18-45 18 45 20-57h28l-34 86H90L80 99l-10 29H48L14 42Z"/><path fill="#163A4F" d="m48 24 17 12c4-2 9-3 15-3s11 1 15 3l17-12-2 25c6 7 9 16 9 27 0 23-17 42-39 42S41 99 41 76c0-11 3-20 9-27l-2-25Z"/><path fill="#0A2132" d="M80 33c22 0 39 19 39 43 0 23-17 42-39 42V33Z"/><path fill="#E8FFF8" d="M60 69c5-6 12-8 19-5-4 8-12 11-19 5Zm40 0c-5-6-12-8-19-5 4 8 12 11 19 5Z"/><path fill="none" stroke="#33D6AE" stroke-linecap="round" stroke-width="4" d="M46 82H27v-9m87 9h19v-9M50 96H35v11m75-11h15v11M80 107v20"/><g fill="#33D6AE"><circle cx="27" cy="70" r="5"/><circle cx="133" cy="70" r="5"/><circle cx="35" cy="110" r="5"/><circle cx="125" cy="110" r="5"/><circle cx="80" cy="131" r="5"/></g></g>
  <text x="170" y="73" fill="#EDF8F5" font-family="Inter, Arial, sans-serif" font-size="55" font-weight="800" letter-spacing="-2">Wampus <tspan fill="#33D6AE">Labs</tspan></text><text x="173" y="111" fill="#9EB4BD" font-family="Inter, Arial, sans-serif" font-size="18" font-weight="600" letter-spacing="1.3">PUTTING TECHNOLOGY TO WORK.</text>
</svg>
