<svg xmlns="http://www.w3.org/2000/svg" viewBox="0 0 64 64">
  <rect width="64" height="64" rx="15" fill="#071827"/>
  <path fill="#33D6AE" d="M5 18h12l8 25 7-19 7 19 8-25h12L45 55h-9l-4-13-4 13h-9L5 18Z"/>
  <path fill="#122F43" d="m18 12 8 6c2-1 4-2 6-2s4 1 6 2l8-6-1 12c3 4 5 8 5 13 0 11-8 19-18 19s-18-8-18-19c0-5 2-9 5-13l-1-12Z"/>
  <path fill="#0A2132" d="M32 16c10 0 18 9 18 21 0 11-8 19-18 19V16Z"/>
  <path fill="#E8FFF8" d="M23 34c3-3 6-4 9-2-2 4-6 5-9 2Zm18 0c-3-3-6-4-9-2 2 4 6 5 9 2Z"/>
  <path fill="none" stroke="#33D6AE" stroke-linecap="round" stroke-width="2" d="M17 42H9m38 0h8M32 49v8"/>
  <g fill="#33D6AE"><circle cx="8" cy="42" r="2.5"/><circle cx="56" cy="42" r="2.5"/><circle cx="32" cy="58" r="2.5"/></g>
</svg>
